<svg width="600" height="67" viewBox="0 0 600 67" fill="none" xmlns="http://www.w3.org/2000/svg">
<path d="M0.247813 51V49.272L4.27981 48.024L17.8638 15H20.6958L33.9438 48.168L38.3118 49.224V51H23.7198V49.224L28.3278 48.168L17.6238 21L6.91981 51H0.247813ZM64.1711 51H55.7231V46.152C54.2191 49.672 51.5791 51.432 47.8031 51.432C45.2751 51.432 43.3551 50.888 42.0431 49.8C40.7311 48.68 40.0751 47.128 40.0751 45.144C40.0751 42.328 41.3071 40.312 43.7711 39.096C46.2671 37.848 50.2191 37.176 55.6271 37.08V35.016C55.6271 32.744 55.1631 31.208 54.2351 30.408C53.3071 29.576 51.9311 29.16 50.1071 29.16C48.2831 29.16 46.6991 29.576 45.3551 30.408L43.7711 35.16H41.9951V29.736C42.7951 29.064 43.8991 28.504 45.3071 28.056C46.7151 27.576 48.2511 27.336 49.9151 27.336C53.3071 27.336 55.8511 27.992 57.5471 29.304C59.2751 30.584 60.1391 32.872 60.1391 36.168V48.12L64.1711 49.224V51ZM49.0511 49.416C51.0991 49.416 52.6991 48.632 53.8511 47.064C55.0351 45.464 55.6271 42.696 55.6271 38.76C50.1231 38.76 46.7631 39.608 45.5471 41.304C44.9711 42.104 44.6831 43.288 44.6831 44.856C44.6831 46.424 45.0191 47.576 45.6911 48.312C46.3951 49.048 47.5151 49.416 49.0511 49.416ZM87.2553 16.488H88.6953C88.6953 18.856 87.8953 20.696 86.2953 22.008C84.6953 23.32 82.7913 23.976 80.5833 23.976C78.3753 23.976 76.4553 23.32 74.8233 22.008C73.2233 20.696 72.4233 18.856 72.4233 16.488H73.9593C73.9593 17.768 74.6153 18.776 75.9273 19.512C77.2713 20.248 78.8233 20.616 80.5833 20.616C82.3753 20.616 83.9273 20.248 85.2393 19.512C86.5833 18.776 87.2553 17.768 87.2553 16.488ZM83.1753 51V49.224L86.6793 48.168V31.224L74.7273 51H66.6153V49.224L70.3113 48.216V30.552L66.6153 29.496V27.72H78.5193V29.496L74.8233 30.6V47.496L86.6793 27.72H95.1273V29.496L91.1913 30.552V48.168L95.1273 49.224V51H83.1753ZM111.055 66.072V64.296L114.847 63.24V45.816C113.407 49.624 110.735 51.528 106.831 51.528C103.759 51.528 101.439 50.36 99.8711 48.024C98.3031 45.688 97.5191 42.856 97.5191 39.528C97.5191 34.888 98.8951 31.432 101.647 29.16C103.087 27.944 104.847 27.336 106.927 27.336C110.863 27.336 113.503 29.176 114.847 32.856V17.832L111.055 16.776V15H118.879V32.856C120.319 29.176 122.975 27.336 126.847 27.336C128.927 27.336 130.703 27.944 132.175 29.16C134.895 31.432 136.255 34.888 136.255 39.528C136.255 42.856 135.455 45.688 133.855 48.024C132.287 50.36 129.967 51.528 126.895 51.528C123.055 51.528 120.383 49.624 118.879 45.816V63.24L122.767 64.296V66.072H111.055ZM114.799 39.336C114.799 36.232 114.095 33.752 112.687 31.896C111.311 30.008 109.663 29.064 107.743 29.064C105.855 29.064 104.447 30.104 103.519 32.184C102.623 34.232 102.175 36.712 102.175 39.624C102.175 42.536 102.607 44.968 103.471 46.92C104.335 48.84 105.695 49.8 107.551 49.8C109.759 49.8 111.519 48.824 112.831 46.872C114.143 44.92 114.799 42.408 114.799 39.336ZM131.599 39.672C131.599 36.76 131.135 34.264 130.207 32.184C129.279 30.104 127.855 29.064 125.935 29.064C124.015 29.064 122.367 30.008 120.991 31.896C119.647 33.752 118.975 36.232 118.975 39.336C118.975 42.408 119.631 44.92 120.943 46.872C122.255 48.824 123.919 49.8 125.935 49.8C127.951 49.8 129.391 48.84 130.255 46.92C131.151 44.968 131.599 42.552 131.599 39.672ZM139.382 36.792H151.526V40.056H139.382V36.792ZM156.819 15H171.411V16.776L167.667 17.784L175.107 29.64L183.075 17.976L178.851 16.728V15H190.611V16.728L186.387 18.024L176.691 31.464L187.251 48.072L191.859 49.224V51H177.267V49.224L181.203 48.216L173.379 35.688L164.787 48.36L168.627 49.272V51H156.867V49.272L161.187 48.168L171.651 33.816L161.523 17.976L156.819 16.776V15ZM219.749 51H211.301V46.152C209.797 49.672 207.157 51.432 203.381 51.432C200.853 51.432 198.933 50.888 197.621 49.8C196.309 48.68 195.653 47.128 195.653 45.144C195.653 42.328 196.885 40.312 199.349 39.096C201.845 37.848 205.797 37.176 211.205 37.08V35.016C211.205 32.744 210.741 31.208 209.813 30.408C208.885 29.576 207.509 29.16 205.685 29.16C203.861 29.16 202.277 29.576 200.933 30.408L199.349 35.16H197.573V29.736C198.373 29.064 199.477 28.504 200.885 28.056C202.293 27.576 203.829 27.336 205.493 27.336C208.885 27.336 211.429 27.992 213.125 29.304C214.853 30.584 215.717 32.872 215.717 36.168V48.12L219.749 49.224V51ZM204.629 49.416C206.677 49.416 208.277 48.632 209.429 47.064C210.613 45.464 211.205 42.696 211.205 38.76C205.701 38.76 202.341 39.608 201.125 41.304C200.549 42.104 200.261 43.288 200.261 44.856C200.261 46.424 200.597 47.576 201.269 48.312C201.973 49.048 203.093 49.416 204.629 49.416ZM238.849 27.672H248.929V29.496L245.137 30.072L235.153 54.648C233.777 57.912 232.641 60.04 231.745 61.032C230.849 62.024 229.377 62.52 227.329 62.52H225.217V55.512H226.993L228.193 59.832C229.185 59.768 229.905 59.496 230.353 59.016C230.801 58.568 231.137 58.216 231.361 57.96C231.585 57.704 231.841 57.24 232.129 56.568C232.449 55.928 232.673 55.432 232.801 55.08C232.961 54.728 233.217 54.088 233.569 53.16C233.921 52.232 234.193 51.544 234.385 51.096L225.217 30.36L221.233 29.496V27.72H233.425V29.496L230.161 30.168L236.737 45.72L242.545 30.12L238.849 29.496V27.672ZM270.31 43.512V49.176C268.614 50.712 266.022 51.48 262.534 51.48C259.046 51.48 256.182 50.424 253.942 48.312C251.734 46.2 250.63 43.256 250.63 39.48C250.63 35.704 251.766 32.728 254.038 30.552C256.342 28.344 259.27 27.24 262.822 27.24C264.294 27.24 265.718 27.432 267.094 27.816C268.47 28.168 269.51 28.664 270.214 29.304V35.256H268.438L266.854 30.024C265.958 29.352 264.47 29.016 262.39 29.016C260.31 29.016 258.646 29.912 257.398 31.704C256.182 33.496 255.574 36.104 255.574 39.528C255.574 46.28 258.038 49.656 262.966 49.656C264.598 49.656 265.894 49.432 266.854 48.984L268.534 43.512H270.31ZM297.852 15H301.164V60.024H297.852V15ZM347.31 51V49.816L350.446 49.08V28.984L341.742 51H339.79L331.086 28.984V49.08L334.286 49.816V51H326.35V49.816L329.422 49.08V29.016L326.702 28.184V27H333.582L341.678 47.032L349.55 27H357.102V28.184L353.774 28.952V49.08L357.038 49.816V51H347.31ZM372.303 43.352C372.303 41.048 371.951 39.3413 371.247 38.232C370.543 37.1013 369.391 36.536 367.791 36.536C366.213 36.536 365.039 37.08 364.271 38.168C363.525 39.2347 363.151 40.952 363.151 43.32C363.151 45.688 363.525 47.3947 364.271 48.44C365.018 49.464 366.159 49.976 367.695 49.976C369.253 49.976 370.405 49.4533 371.151 48.408C371.919 47.3413 372.303 45.656 372.303 43.352ZM359.919 43.352C359.919 40.8347 360.634 38.8507 362.063 37.4C363.493 35.928 365.381 35.192 367.727 35.192C370.095 35.192 371.983 35.9067 373.391 37.336C374.799 38.7653 375.503 40.76 375.503 43.32C375.503 45.88 374.799 47.8533 373.391 49.24C371.983 50.6053 370.085 51.288 367.695 51.288C365.327 51.288 363.439 50.5947 362.031 49.208C360.623 47.8213 359.919 45.8693 359.919 43.352ZM376.59 49.848H379.214L385.326 35.352H387.054L392.846 49.848H395.47V53.848H394.446L393.294 51H378.702L377.454 53.976H376.59V49.848ZM389.518 49.848L385.39 37.944L381.326 49.848H389.518ZM408.001 35.448H414.721V36.664L412.193 37.048L405.537 53.432C404.62 55.608 403.863 57.0267 403.265 57.688C402.668 58.3493 401.687 58.68 400.321 58.68H398.913V54.008H400.097L400.897 56.888C401.559 56.8453 402.039 56.664 402.337 56.344C402.636 56.0453 402.86 55.8107 403.009 55.64C403.159 55.4693 403.329 55.16 403.521 54.712C403.735 54.2853 403.884 53.9547 403.969 53.72C404.076 53.4853 404.247 53.0587 404.481 52.44C404.716 51.8213 404.897 51.3627 405.025 51.064L398.913 37.24L396.257 36.664V35.48H404.385V36.664L402.209 37.112L406.593 47.48L410.465 37.08L408.001 36.664V35.448ZM415.215 51V49.784L417.615 49.24L423.343 35.448H425.231L430.895 49.24L433.391 49.784V50.968H425.263V49.784L427.471 49.24L423.503 38.136L419.151 51H415.215ZM434.707 35.608H442.835V36.792L440.083 37.56V42.712H445.075C446.355 42.712 447.347 43.128 448.051 43.96C448.755 44.7707 449.107 45.7413 449.107 46.872C449.107 48.0027 448.755 48.9733 448.051 49.784C447.347 50.5947 446.355 51 445.075 51H434.707V49.816L437.043 49.176V37.464L434.707 36.792V35.608ZM443.219 43.864H440.083V49.848H443.219C444.136 49.848 444.84 49.56 445.331 48.984C445.843 48.3867 446.099 47.6827 446.099 46.872C446.099 46.0613 445.843 45.3573 445.331 44.76C444.819 44.1627 444.115 43.864 443.219 43.864ZM461.714 51V49.816L463.89 49.112V43.736H456.306V49.112L458.642 49.816V51H450.834V49.816L453.298 49.144V37.368L450.834 36.664V35.48H458.642V36.664L456.306 37.4V42.584H463.89V37.368L461.714 36.664V35.48H469.522V36.664L466.898 37.368V49.112L469.522 49.816V51H461.714ZM472.054 35.608H480.182V36.792L477.43 37.56V42.712H482.422C483.681 42.712 484.662 43.128 485.366 43.96C486.092 44.7707 486.454 45.7413 486.454 46.872C486.454 48.0027 486.102 48.9733 485.398 49.784C484.694 50.5947 483.702 51 482.422 51H472.054V49.816L474.39 49.176V37.464L472.054 36.792V35.608ZM480.566 43.864H477.43V49.848H480.566C481.484 49.848 482.188 49.56 482.678 48.984C483.19 48.3867 483.446 47.6827 483.446 46.872C483.446 46.0613 483.19 45.3573 482.678 44.76C482.188 44.1627 481.484 43.864 480.566 43.864ZM495.414 51H487.286V49.816L489.75 49.144V37.368L487.286 36.664V35.48H495.414V36.664L492.758 37.4V49.112L495.414 49.816V51ZM511.399 45.592V49.24C510.183 50.6267 508.22 51.32 505.511 51.32C502.823 51.32 500.828 50.616 499.527 49.208C498.226 47.7787 497.575 45.8053 497.575 43.288C497.575 40.7707 498.258 38.7973 499.623 37.368C501.01 35.9173 502.866 35.192 505.191 35.192C506.578 35.192 507.73 35.448 508.647 35.96C509.586 36.472 510.258 37.1547 510.663 38.008C511.303 39.416 511.623 40.8987 511.623 42.456H500.775C500.775 44.8667 501.052 46.7013 501.607 47.96C502.247 49.3893 503.506 50.104 505.383 50.104C506.044 50.104 506.674 50.0187 507.271 49.848C507.89 49.656 508.338 49.4747 508.615 49.304C508.892 49.1333 509.031 49.0267 509.031 48.984L510.215 45.592H511.399ZM505.127 36.44C503.314 36.44 502.076 37.272 501.415 38.936C501.095 39.6827 500.903 40.504 500.839 41.4H508.839C508.839 38.0933 507.602 36.44 505.127 36.44ZM521.84 49.848H524.464L530.576 35.352H532.304L538.096 49.848H540.72V53.848H539.696L538.544 51H523.952L522.704 53.976H521.84V49.848ZM534.768 49.848L530.64 37.944L526.576 49.848H534.768ZM553.585 43.352C553.585 41.048 553.233 39.3413 552.529 38.232C551.825 37.1013 550.673 36.536 549.073 36.536C547.494 36.536 546.321 37.08 545.553 38.168C544.806 39.2347 544.433 40.952 544.433 43.32C544.433 45.688 544.806 47.3947 545.553 48.44C546.299 49.464 547.441 49.976 548.977 49.976C550.534 49.976 551.686 49.4533 552.433 48.408C553.201 47.3413 553.585 45.656 553.585 43.352ZM541.201 43.352C541.201 40.8347 541.915 38.8507 543.345 37.4C544.774 35.928 546.662 35.192 549.009 35.192C551.377 35.192 553.265 35.9067 554.673 37.336C556.081 38.7653 556.785 40.76 556.785 43.32C556.785 45.88 556.081 47.8533 554.673 49.24C553.265 50.6053 551.366 51.288 548.977 51.288C546.609 51.288 544.721 50.5947 543.313 49.208C541.905 47.8213 541.201 45.8693 541.201 43.352ZM558.992 35.48H565.264L570.096 47.512L574.992 35.512H581.104V36.664L578.704 37.336V49.08L581.232 49.816V51H573.104V49.816L575.664 49.08V37.016L570.096 51H568.304L562.672 37.016V49.112L565.008 49.816V51H559.056V49.816L561.52 49.112V37.464L558.992 36.664V35.48ZM599.643 51H594.011V47.768C593.008 50.1147 591.248 51.288 588.731 51.288C587.045 51.288 585.765 50.9253 584.891 50.2C584.016 49.4533 583.579 48.4187 583.579 47.096C583.579 45.2187 584.4 43.8747 586.043 43.064C587.707 42.232 590.341 41.784 593.947 41.72V40.344C593.947 38.8293 593.637 37.8053 593.019 37.272C592.4 36.7173 591.483 36.44 590.267 36.44C589.051 36.44 587.995 36.7173 587.099 37.272L586.043 40.44H584.859V36.824C585.392 36.376 586.128 36.0027 587.067 35.704C588.005 35.384 589.029 35.224 590.139 35.224C592.4 35.224 594.096 35.6613 595.227 36.536C596.379 37.3893 596.955 38.9147 596.955 41.112V49.08L599.643 49.816V51ZM589.563 49.944C590.928 49.944 591.995 49.4213 592.763 48.376C593.552 47.3093 593.947 45.464 593.947 42.84C590.277 42.84 588.037 43.4053 587.227 44.536C586.843 45.0693 586.651 45.8587 586.651 46.904C586.651 47.9493 586.875 48.7173 587.323 49.208C587.792 49.6987 588.539 49.944 589.563 49.944Z" fill="#0D0000"/>
</svg>
