<svg id="Слой_1" data-name="Слой 1" xmlns="http://www.w3.org/2000/svg" width="218.82" height="285.18" viewBox="0 0 218.82 285.18">
  <defs>
    <style>
      .cls-1 {
        font-size: 37px;
        font-family: Century;
      }

      .cls-1, .cls-2, .cls-3, .cls-4, .cls-5 {
        stroke: #000;
      }

      .cls-1, .cls-4, .cls-5 {
        stroke-miterlimit: 10;
      }

      .cls-2, .cls-3, .cls-4 {
        fill: none;
      }

      .cls-2, .cls-3 {
        stroke-linecap: round;
      }

      .cls-2 {
        stroke-linejoin: round;
        stroke-width: 6px;
      }

      .cls-3 {
        stroke-linejoin: bevel;
        stroke-width: 4px;
      }

      .cls-4, .cls-5 {
        stroke-width: 2px;
      }

      .cls-5 {
        fill: #fff;
      }
    </style>
  </defs>
  <text class="cls-1" transform="translate(16.01 192.59)">Эстетик</text>
  <text class="cls-1" transform="translate(45.36 229.9)">Хаус</text>
  <polygon class="cls-2" points="213.57 156.45 213.57 279.35 6.37 279.35 6.37 156.45 107.11 54.44 213.57 156.45"/>
  <path class="cls-3" d="M171.38,65.45C141.38,28.4,231,42.22,194.32,3.69"/>
  <polygon class="cls-4" points="201.95 232.04 201.95 239.31 196.37 239.31 196.37 277.28 147.54 277.28 147.54 239.31 141.24 239.31 141.24 232.04 201.95 232.04"/>
  <polygon class="cls-5" points="150.22 232.04 164.57 193.15 164.56 80.74 178.95 80.74 178.95 192.11 193.69 232.04 150.22 232.04"/>
  <path class="cls-4" d="M155.6,271.45V256s15.5-22.16,32.71,0v15.41Z"/>
</svg>
