<svg width="477" height="191" viewBox="0 0 477 191" fill="none" xmlns="http://www.w3.org/2000/svg">
<rect width="477" height="191" fill="white"/>
<g filter="url(#filter0_d_226_10)">
<path d="M117.19 120.55L117.52 118.02C119.17 117.8 120.288 117.378 120.875 116.755C121.498 116.095 121.81 114.977 121.81 113.4L121.865 90.3C121.865 89.1267 121.737 88.3383 121.48 87.935C121.223 87.5317 120.673 87.33 119.83 87.33C119.61 87.33 119.317 87.3483 118.95 87.385C118.583 87.385 118.253 87.4033 117.96 87.44L117.85 87.22L118.235 84.8C118.858 84.8 119.61 84.8183 120.49 84.855C121.37 84.8917 122.287 84.9283 123.24 84.965C124.193 84.965 125.073 84.965 125.88 84.965C128.813 84.965 131.27 84.9467 133.25 84.91C135.267 84.8733 136.99 84.8 138.42 84.69C139.85 84.58 141.17 84.4517 142.38 84.305L142.545 84.635C142.362 85.515 142.178 86.505 141.995 87.605C141.812 88.6683 141.665 89.7317 141.555 90.795C141.445 91.8583 141.353 92.8483 141.28 93.765L138.64 93.985C138.677 93.655 138.695 93.2517 138.695 92.775C138.732 92.2617 138.75 91.8767 138.75 91.62C138.75 90.74 138.658 90.0433 138.475 89.53C138.328 88.98 137.98 88.5767 137.43 88.32C136.917 88.0633 136.092 87.8983 134.955 87.825C133.818 87.7517 132.278 87.715 130.335 87.715C129.162 87.715 128.3 87.7517 127.75 87.825C127.2 87.8983 126.852 88.0817 126.705 88.375C126.595 88.6683 126.522 89.1633 126.485 89.86L125.935 102.675L125.715 114.225C125.715 115.215 125.807 115.948 125.99 116.425C126.173 116.865 126.558 117.158 127.145 117.305C127.768 117.452 128.74 117.525 130.06 117.525C132.223 117.525 133.965 117.452 135.285 117.305C136.605 117.158 137.613 116.865 138.31 116.425C139.007 115.985 139.52 115.325 139.85 114.445C140.18 113.528 140.455 112.318 140.675 110.815L143.095 110.54L143.26 110.815C143.003 111.952 142.728 113.4 142.435 115.16C142.178 116.92 141.958 118.552 141.775 120.055L141.5 120.385C139.3 120.312 137.1 120.238 134.9 120.165C132.737 120.128 130.775 120.092 129.015 120.055C127.255 120.018 125.862 120 124.835 120C123.698 120 122.397 120.037 120.93 120.11C119.5 120.22 118.253 120.367 117.19 120.55ZM125.165 103.83L125.66 100.53C125.917 100.53 126.412 100.53 127.145 100.53C127.878 100.53 128.667 100.548 129.51 100.585C130.353 100.585 131.087 100.585 131.71 100.585C132.333 100.585 133.287 100.53 134.57 100.42C135.89 100.273 137.173 100.127 138.42 99.98L138.64 100.255L137.87 103.5C136.843 103.463 135.56 103.427 134.02 103.39C132.517 103.353 131.233 103.335 130.17 103.335C129.473 103.335 128.648 103.39 127.695 103.5C126.778 103.573 125.935 103.683 125.165 103.83ZM155.9 120.66C154.58 120.66 153.425 120.55 152.435 120.33C151.445 120.147 150.675 119.963 150.125 119.78C149.612 119.597 149.355 119.505 149.355 119.505L149.19 119.12C149.263 118.717 149.337 118.057 149.41 117.14C149.52 116.187 149.612 115.197 149.685 114.17C149.795 113.143 149.85 112.337 149.85 111.75L151.775 111.475C151.775 113.895 152.178 115.6 152.985 116.59C153.792 117.58 155.167 118.075 157.11 118.075C158.503 118.075 159.677 117.763 160.63 117.14C161.583 116.517 162.06 115.747 162.06 114.83C162.06 114.207 161.877 113.638 161.51 113.125C161.143 112.612 160.502 112.043 159.585 111.42C158.668 110.797 157.367 110.045 155.68 109.165C153.59 108.102 152.068 107.02 151.115 105.92C150.162 104.82 149.685 103.61 149.685 102.29C149.685 100.787 150.125 99.4483 151.005 98.275C151.885 97.1017 153.095 96.185 154.635 95.525C156.175 94.8283 157.898 94.48 159.805 94.48C161.308 94.48 162.592 94.6267 163.655 94.92C164.755 95.2133 165.305 95.36 165.305 95.36L165.415 95.635C165.415 95.635 165.342 95.9467 165.195 96.57C165.085 97.1933 164.938 98.0183 164.755 99.045C164.608 100.035 164.48 101.135 164.37 102.345L162.335 102.51C162.335 102.51 162.353 102.308 162.39 101.905C162.427 101.502 162.445 101.172 162.445 100.915C162.445 99.595 162.078 98.6417 161.345 98.055C160.648 97.4317 159.512 97.12 157.935 97.12C156.688 97.12 155.625 97.4133 154.745 98C153.902 98.5867 153.48 99.3017 153.48 100.145C153.48 101.025 153.847 101.85 154.58 102.62C155.35 103.39 156.578 104.215 158.265 105.095C160.245 106.122 161.785 107.057 162.885 107.9C164.022 108.707 164.81 109.495 165.25 110.265C165.727 111.035 165.965 111.878 165.965 112.795C165.965 114.188 165.488 115.49 164.535 116.7C163.618 117.91 162.39 118.882 160.85 119.615C159.347 120.312 157.697 120.66 155.9 120.66ZM179.954 120.66C177.461 120.66 175.701 120.165 174.674 119.175C173.647 118.148 173.134 116.425 173.134 114.005V100.475C173.134 99.485 172.914 98.7883 172.474 98.385C172.034 97.9817 171.209 97.7617 169.999 97.725L169.779 97.395L170.054 95.745C170.934 95.305 171.777 94.81 172.584 94.26C173.427 93.6733 174.161 93.1233 174.784 92.61C175.444 92.06 175.957 91.62 176.324 91.29C176.691 90.9233 176.874 90.74 176.874 90.74L177.974 91.18C177.974 91.18 177.919 91.5283 177.809 92.225C177.736 92.9217 177.644 93.9483 177.534 95.305L185.619 95.14L185.784 95.305L185.289 98.22L177.314 98.055C177.204 99.7783 177.112 101.795 177.039 104.105C176.966 106.415 176.929 108.982 176.929 111.805C176.929 113.675 177.241 114.995 177.864 115.765C178.524 116.535 179.642 116.92 181.219 116.92C182.136 116.92 182.979 116.755 183.749 116.425C184.556 116.095 184.959 115.93 184.959 115.93L185.509 117.36C185.509 117.36 185.289 117.525 184.849 117.855C184.409 118.185 183.859 118.57 183.199 119.01C182.576 119.45 181.952 119.835 181.329 120.165C180.742 120.495 180.284 120.66 179.954 120.66ZM188.703 117.855C189.767 117.745 190.5 117.47 190.903 117.03C191.343 116.59 191.563 115.857 191.563 114.83V85.57C191.563 84.58 191.398 83.865 191.068 83.425C190.775 82.9483 190.262 82.71 189.528 82.71H188.373L188.153 82.545L188.373 80.785C189.217 80.675 190.133 80.5283 191.123 80.345C192.15 80.1617 193.14 79.9783 194.093 79.795C195.047 79.575 195.853 79.3733 196.513 79.19L196.843 79.905C196.697 80.1617 196.532 81.1333 196.348 82.82C196.165 84.5067 196 86.725 195.853 89.475C195.743 92.225 195.633 95.3233 195.523 98.77C195.78 98.5867 196.238 98.275 196.898 97.835C197.595 97.3583 198.365 96.8633 199.208 96.35C200.088 95.8367 200.932 95.3967 201.738 95.03C202.582 94.6633 203.26 94.48 203.773 94.48C206.157 94.48 208.008 95.1033 209.328 96.35C210.648 97.56 211.308 99.3017 211.308 101.575C211.308 102.052 211.253 102.84 211.143 103.94C211.07 105.04 210.978 106.268 210.868 107.625C210.758 108.982 210.648 110.283 210.538 111.53C210.465 112.777 210.428 113.803 210.428 114.61C210.428 115.673 210.575 116.462 210.868 116.975C211.162 117.452 211.657 117.69 212.353 117.69C212.573 117.69 212.867 117.69 213.233 117.69C213.637 117.653 213.985 117.617 214.278 117.58L214.388 117.8L213.948 120.165C213.362 120.128 212.573 120.092 211.583 120.055C210.63 120.018 209.787 120 209.053 120C208.613 120 208.082 120.018 207.458 120.055C206.835 120.128 206.175 120.202 205.478 120.275C204.782 120.385 204.085 120.513 203.388 120.66L203.608 118.405C204.708 118.112 205.497 117.69 205.973 117.14C206.45 116.553 206.688 115.783 206.688 114.83L207.018 103.94C207.018 102.107 206.615 100.695 205.808 99.705C205.038 98.715 203.92 98.22 202.453 98.22C201.537 98.22 200.4 98.5133 199.043 99.1C197.723 99.6867 196.532 100.402 195.468 101.245C195.432 102.602 195.395 104.013 195.358 105.48C195.358 106.947 195.34 108.45 195.303 109.99C195.303 111.493 195.303 113.033 195.303 114.61C195.303 115.747 195.45 116.553 195.743 117.03C196.073 117.47 196.587 117.69 197.283 117.69C197.503 117.69 197.797 117.69 198.163 117.69C198.567 117.653 198.915 117.617 199.208 117.58L199.318 117.8L198.823 120.165C198.2 120.128 197.393 120.092 196.403 120.055C195.413 120.018 194.552 120 193.818 120C193.048 120 192.132 120 191.068 120C190.042 120.037 189.143 120.073 188.373 120.11L188.703 117.855ZM229.688 120.66C227.378 120.66 225.362 120.147 223.638 119.12C221.915 118.093 220.558 116.682 219.568 114.885C218.615 113.052 218.138 110.925 218.138 108.505C218.138 106.635 218.45 104.857 219.073 103.17C219.733 101.483 220.632 99.9983 221.768 98.715C222.905 97.395 224.188 96.3683 225.618 95.635C227.085 94.865 228.643 94.48 230.293 94.48C235.757 94.48 238.488 97.1383 238.488 102.455C238.488 102.932 238.452 103.427 238.378 103.94C238.305 104.453 238.232 104.857 238.158 105.15L237.443 105.81H222.263C222.227 109.073 222.813 111.658 224.023 113.565C225.27 115.435 227.012 116.535 229.248 116.865C231.485 117.158 234.125 116.608 237.168 115.215L237.498 115.325L238.103 116.92C237.37 117.433 236.49 117.983 235.463 118.57C234.473 119.157 233.465 119.652 232.438 120.055C231.412 120.458 230.495 120.66 229.688 120.66ZM222.483 103.775L232.438 103.28C232.988 103.207 233.355 103.078 233.538 102.895C233.722 102.712 233.813 102.345 233.813 101.795C233.813 100.328 233.41 99.21 232.603 98.44C231.833 97.67 230.715 97.285 229.248 97.285C227.562 97.285 226.095 97.8717 224.848 99.045C223.602 100.182 222.813 101.758 222.483 103.775ZM252.142 120.66C249.648 120.66 247.888 120.165 246.862 119.175C245.835 118.148 245.322 116.425 245.322 114.005V100.475C245.322 99.485 245.102 98.7883 244.662 98.385C244.222 97.9817 243.397 97.7617 242.187 97.725L241.967 97.395L242.242 95.745C243.122 95.305 243.965 94.81 244.772 94.26C245.615 93.6733 246.348 93.1233 246.972 92.61C247.632 92.06 248.145 91.62 248.512 91.29C248.878 90.9233 249.062 90.74 249.062 90.74L250.162 91.18C250.162 91.18 250.107 91.5283 249.997 92.225C249.923 92.9217 249.832 93.9483 249.722 95.305L257.807 95.14L257.972 95.305L257.477 98.22L249.502 98.055C249.392 99.7783 249.3 101.795 249.227 104.105C249.153 106.415 249.117 108.982 249.117 111.805C249.117 113.675 249.428 114.995 250.052 115.765C250.712 116.535 251.83 116.92 253.407 116.92C254.323 116.92 255.167 116.755 255.937 116.425C256.743 116.095 257.147 115.93 257.147 115.93L257.697 117.36C257.697 117.36 257.477 117.525 257.037 117.855C256.597 118.185 256.047 118.57 255.387 119.01C254.763 119.45 254.14 119.835 253.517 120.165C252.93 120.495 252.472 120.66 252.142 120.66ZM261.386 120.66L261.606 118.405C262.706 118.112 263.494 117.69 263.971 117.14C264.447 116.553 264.686 115.783 264.686 114.83V100.86C264.686 99.8333 264.521 99.0817 264.191 98.605C263.861 98.1283 263.347 97.89 262.651 97.89C262.357 97.89 262.046 97.9267 261.716 98C261.422 98.0733 261.276 98.11 261.276 98.11L261.496 96.075C262.412 95.9283 263.329 95.7633 264.246 95.58C265.199 95.3967 266.061 95.2317 266.831 95.085C267.601 94.9017 268.224 94.755 268.701 94.645C269.177 94.535 269.416 94.48 269.416 94.48L269.691 95.14C269.544 95.5067 269.379 96.3317 269.196 97.615C269.049 98.8617 268.921 100.402 268.811 102.235C268.701 104.032 268.609 106.012 268.536 108.175C268.462 110.302 268.426 112.447 268.426 114.61C268.426 115.673 268.572 116.462 268.866 116.975C269.159 117.452 269.654 117.69 270.351 117.69C270.681 117.69 271.084 117.672 271.561 117.635C272.037 117.598 272.276 117.58 272.276 117.58L272.386 117.8L271.946 120.165C271.946 120.165 271.781 120.147 271.451 120.11C271.157 120.11 270.754 120.092 270.241 120.055C269.764 120.055 269.232 120.037 268.646 120C268.096 120 267.564 120 267.051 120C266.281 120 265.456 120.055 264.576 120.165C263.696 120.275 262.944 120.385 262.321 120.495C261.697 120.605 261.386 120.66 261.386 120.66ZM266.226 87.99C265.309 87.99 264.631 87.6967 264.191 87.11C263.751 86.5233 263.531 85.8817 263.531 85.185C263.531 84.305 263.842 83.5533 264.466 82.93C265.089 82.27 265.859 81.94 266.776 81.94C267.656 81.94 268.316 82.2333 268.756 82.82C269.232 83.37 269.471 84.0117 269.471 84.745C269.471 85.625 269.159 86.395 268.536 87.055C267.949 87.6783 267.179 87.99 266.226 87.99ZM287.963 120.66C285.653 120.66 283.637 120.165 281.913 119.175C280.19 118.148 278.852 116.737 277.898 114.94C276.945 113.107 276.468 110.962 276.468 108.505C276.468 105.865 277.018 103.5 278.118 101.41C279.255 99.2833 280.777 97.5967 282.683 96.35C284.627 95.1033 286.79 94.48 289.173 94.48C290.347 94.48 291.41 94.5717 292.363 94.755C293.353 94.9017 294.142 95.0667 294.728 95.25C295.315 95.4333 295.608 95.525 295.608 95.525L295.773 95.91C295.773 95.91 295.682 96.24 295.498 96.9C295.352 97.56 295.187 98.4767 295.003 99.65C294.82 100.787 294.692 102.07 294.618 103.5L292.363 103.665V101.96C292.363 100.603 291.942 99.5217 291.098 98.715C290.292 97.8717 289.21 97.45 287.853 97.45C285.617 97.45 283.893 98.2567 282.683 99.87C281.473 101.447 280.868 103.702 280.868 106.635C280.868 109.825 281.528 112.355 282.848 114.225C284.205 116.058 286.038 116.975 288.348 116.975C289.375 116.975 290.365 116.828 291.318 116.535C292.272 116.205 293.042 115.893 293.628 115.6C294.252 115.307 294.563 115.16 294.563 115.16L294.893 115.27L295.498 116.975C295.498 116.975 295.242 117.158 294.728 117.525C294.215 117.892 293.555 118.332 292.748 118.845C291.942 119.322 291.098 119.743 290.218 120.11C289.375 120.477 288.623 120.66 287.963 120.66ZM311.892 120.66L312.222 118.13C313.945 117.8 315.082 117.323 315.632 116.7C316.219 116.04 316.512 114.94 316.512 113.4L316.567 90.3C316.567 89.1267 316.439 88.3383 316.182 87.935C315.925 87.5317 315.375 87.33 314.532 87.33C314.312 87.33 314.019 87.3483 313.652 87.385C313.285 87.385 312.955 87.4033 312.662 87.44L312.552 87.22L312.937 84.8C313.78 84.8367 314.807 84.8733 316.017 84.91C317.264 84.9467 318.272 84.965 319.042 84.965C319.739 84.965 320.637 84.9283 321.737 84.855C322.874 84.745 323.937 84.6167 324.927 84.47L324.707 86.945C323.68 87.0917 322.91 87.3117 322.397 87.605C321.92 87.8617 321.59 88.32 321.407 88.98C321.26 89.6033 321.15 90.575 321.077 91.895L320.747 100.805L329.987 100.86C331.197 100.86 332.389 100.823 333.562 100.75C334.735 100.677 336.257 100.53 338.127 100.31L338.182 90.3C338.182 89.1267 338.054 88.3383 337.797 87.935C337.54 87.5317 336.99 87.33 336.147 87.33C335.89 87.33 335.579 87.3483 335.212 87.385C334.882 87.385 334.57 87.4033 334.277 87.44L334.167 87.22L334.552 84.8C334.552 84.8 334.882 84.8183 335.542 84.855C336.202 84.8917 336.954 84.9283 337.797 84.965C338.64 84.965 339.355 84.965 339.942 84.965C340.749 84.965 341.775 84.9283 343.022 84.855C344.269 84.745 345.442 84.6167 346.542 84.47L346.322 86.945C344.965 87.1283 344.049 87.44 343.572 87.88C343.132 88.2833 342.875 89.0167 342.802 90.08C342.692 92.2067 342.582 94.4433 342.472 96.79C342.399 99.1 342.325 101.373 342.252 103.61C342.179 105.81 342.124 107.827 342.087 109.66C342.05 111.493 342.032 112.997 342.032 114.17C342.032 115.527 342.197 116.443 342.527 116.92C342.857 117.36 343.499 117.58 344.452 117.58C344.855 117.58 345.295 117.562 345.772 117.525C346.249 117.488 346.634 117.452 346.927 117.415L347.037 117.635L346.542 120.165C345.625 120.128 344.489 120.092 343.132 120.055C341.775 120.018 340.657 120 339.777 120C339.337 120 338.732 120 337.962 120C337.229 120.037 336.459 120.055 335.652 120.055C334.845 120.055 334.112 120.073 333.452 120.11L333.947 117.635C335.12 117.598 336 117.433 336.587 117.14C337.174 116.847 337.577 116.278 337.797 115.435C338.017 114.592 338.127 113.363 338.127 111.75V103.445C337.284 103.445 336.33 103.445 335.267 103.445C334.204 103.408 333.177 103.39 332.187 103.39C331.197 103.39 330.39 103.39 329.767 103.39C329.4 103.39 328.722 103.427 327.732 103.5C326.779 103.537 325.66 103.61 324.377 103.72C323.13 103.793 321.884 103.885 320.637 103.995L320.417 113.84C320.417 115.307 320.582 116.297 320.912 116.81C321.242 117.323 321.884 117.58 322.837 117.58C323.24 117.58 323.68 117.562 324.157 117.525C324.634 117.488 325.019 117.452 325.312 117.415L325.422 117.635L324.927 120.165C324.927 120.128 324.652 120.092 324.102 120.055C323.552 120.055 322.91 120.037 322.177 120C321.444 120 320.802 120 320.252 120C319.152 120 317.942 120.037 316.622 120.11C315.339 120.183 314.239 120.257 313.322 120.33C312.405 120.44 311.929 120.55 311.892 120.66ZM361.743 120.66C359.653 120.66 357.801 120.147 356.188 119.12C354.574 118.093 353.309 116.663 352.393 114.83C351.513 112.96 351.073 110.833 351.073 108.45C351.073 105.81 351.623 103.445 352.723 101.355C353.859 99.2283 355.399 97.56 357.343 96.35C359.286 95.1033 361.449 94.48 363.833 94.48C365.923 94.48 367.774 94.9933 369.388 96.02C371.001 97.0467 372.248 98.4767 373.128 100.31C374.044 102.143 374.503 104.27 374.503 106.69C374.503 109.293 373.934 111.658 372.798 113.785C371.698 115.912 370.176 117.598 368.233 118.845C366.326 120.055 364.163 120.66 361.743 120.66ZM363.283 117.965C365.336 117.965 366.968 117.14 368.178 115.49C369.388 113.803 369.993 111.53 369.993 108.67C369.993 106.47 369.663 104.527 369.003 102.84C368.343 101.153 367.426 99.8333 366.253 98.88C365.079 97.9267 363.723 97.45 362.183 97.45C360.129 97.45 358.498 98.2933 357.288 99.98C356.078 101.667 355.473 103.958 355.473 106.855C355.473 109.055 355.803 110.998 356.463 112.685C357.123 114.335 358.039 115.637 359.213 116.59C360.386 117.507 361.743 117.965 363.283 117.965ZM381.435 100.915C381.435 99.9617 381.27 99.2283 380.94 98.715C380.61 98.2017 380.097 97.945 379.4 97.945C379.107 97.945 378.795 97.9817 378.465 98.055C378.172 98.1283 378.025 98.165 378.025 98.165L378.245 96.13C379.089 95.9833 379.969 95.8183 380.885 95.635C381.802 95.4517 382.645 95.2683 383.415 95.085C384.222 94.9017 384.864 94.755 385.34 94.645C385.854 94.535 386.11 94.48 386.11 94.48L386.44 95.14C386.257 95.6167 386.074 96.4417 385.89 97.615C385.744 98.7517 385.597 100.09 385.45 101.63C385.304 103.17 385.194 104.802 385.12 106.525C385.047 108.212 385.01 109.862 385.01 111.475C385.01 115.068 386.477 116.865 389.41 116.865C390.694 116.865 391.885 116.517 392.985 115.82C394.122 115.087 395.149 114.39 396.065 113.73V100.97C396.065 99.87 395.864 99.1 395.46 98.66C395.057 98.22 394.342 98 393.315 98C393.169 98 392.912 98.0183 392.545 98.055C392.179 98.055 391.995 98.055 391.995 98.055L392.215 96.075C393.205 95.9283 394.195 95.7633 395.185 95.58C396.175 95.3967 397.074 95.2317 397.88 95.085C398.724 94.9017 399.402 94.755 399.915 94.645C400.429 94.535 400.685 94.48 400.685 94.48L401.015 95.14C400.795 95.69 400.594 96.9183 400.41 98.825C400.227 100.732 400.08 103.042 399.97 105.755C399.86 108.468 399.805 111.292 399.805 114.225C399.805 115.032 400.007 115.655 400.41 116.095C400.814 116.535 401.364 116.755 402.06 116.755C402.647 116.755 403.179 116.645 403.655 116.425C404.169 116.168 404.572 115.93 404.865 115.71C405.195 115.49 405.36 115.38 405.36 115.38L406.13 116.26C406.13 116.26 405.965 116.48 405.635 116.92C405.342 117.36 404.939 117.873 404.425 118.46C403.949 119.047 403.435 119.56 402.885 120C402.335 120.44 401.822 120.66 401.345 120.66C398.375 120.66 396.744 119.175 396.45 116.205L396.175 116.095C394.415 117.452 392.82 118.552 391.39 119.395C389.997 120.238 389.044 120.66 388.53 120.66C386.184 120.66 384.369 120.11 383.085 119.01C381.839 117.91 381.215 116.333 381.215 114.28L381.435 100.915ZM415.646 120.66C414.326 120.66 413.171 120.55 412.181 120.33C411.191 120.147 410.421 119.963 409.871 119.78C409.358 119.597 409.101 119.505 409.101 119.505L408.936 119.12C409.01 118.717 409.083 118.057 409.156 117.14C409.266 116.187 409.358 115.197 409.431 114.17C409.541 113.143 409.596 112.337 409.596 111.75L411.521 111.475C411.521 113.895 411.925 115.6 412.731 116.59C413.538 117.58 414.913 118.075 416.856 118.075C418.25 118.075 419.423 117.763 420.376 117.14C421.33 116.517 421.806 115.747 421.806 114.83C421.806 114.207 421.623 113.638 421.256 113.125C420.89 112.612 420.248 112.043 419.331 111.42C418.415 110.797 417.113 110.045 415.426 109.165C413.336 108.102 411.815 107.02 410.861 105.92C409.908 104.82 409.431 103.61 409.431 102.29C409.431 100.787 409.871 99.4483 410.751 98.275C411.631 97.1017 412.841 96.185 414.381 95.525C415.921 94.8283 417.645 94.48 419.551 94.48C421.055 94.48 422.338 94.6267 423.401 94.92C424.501 95.2133 425.051 95.36 425.051 95.36L425.161 95.635C425.161 95.635 425.088 95.9467 424.941 96.57C424.831 97.1933 424.685 98.0183 424.501 99.045C424.355 100.035 424.226 101.135 424.116 102.345L422.081 102.51C422.081 102.51 422.1 102.308 422.136 101.905C422.173 101.502 422.191 101.172 422.191 100.915C422.191 99.595 421.825 98.6417 421.091 98.055C420.395 97.4317 419.258 97.12 417.681 97.12C416.435 97.12 415.371 97.4133 414.491 98C413.648 98.5867 413.226 99.3017 413.226 100.145C413.226 101.025 413.593 101.85 414.326 102.62C415.096 103.39 416.325 104.215 418.011 105.095C419.991 106.122 421.531 107.057 422.631 107.9C423.768 108.707 424.556 109.495 424.996 110.265C425.473 111.035 425.711 111.878 425.711 112.795C425.711 114.188 425.235 115.49 424.281 116.7C423.365 117.91 422.136 118.882 420.596 119.615C419.093 120.312 417.443 120.66 415.646 120.66ZM441.9 120.66C439.59 120.66 437.573 120.147 435.85 119.12C434.127 118.093 432.77 116.682 431.78 114.885C430.827 113.052 430.35 110.925 430.35 108.505C430.35 106.635 430.662 104.857 431.285 103.17C431.945 101.483 432.843 99.9983 433.98 98.715C435.117 97.395 436.4 96.3683 437.83 95.635C439.297 94.865 440.855 94.48 442.505 94.48C447.968 94.48 450.7 97.1383 450.7 102.455C450.7 102.932 450.663 103.427 450.59 103.94C450.517 104.453 450.443 104.857 450.37 105.15L449.655 105.81H434.475C434.438 109.073 435.025 111.658 436.235 113.565C437.482 115.435 439.223 116.535 441.46 116.865C443.697 117.158 446.337 116.608 449.38 115.215L449.71 115.325L450.315 116.92C449.582 117.433 448.702 117.983 447.675 118.57C446.685 119.157 445.677 119.652 444.65 120.055C443.623 120.458 442.707 120.66 441.9 120.66ZM434.695 103.775L444.65 103.28C445.2 103.207 445.567 103.078 445.75 102.895C445.933 102.712 446.025 102.345 446.025 101.795C446.025 100.328 445.622 99.21 444.815 98.44C444.045 97.67 442.927 97.285 441.46 97.285C439.773 97.285 438.307 97.8717 437.06 99.045C435.813 100.182 435.025 101.758 434.695 103.775Z" fill="black"/>
</g>
<path d="M46.9961 86.0176L46.9961 126.472" stroke="black" stroke-width="4" stroke-linecap="round"/>
<path d="M47.2492 126.763L105.113 126.764" stroke="black" stroke-width="4" stroke-linecap="round"/>
<path d="M75.3984 61.1523L46.9946 85.8466" stroke="black" stroke-width="4" stroke-linecap="round"/>
<g filter="url(#filter1_d_226_10)">
<path d="M79.4941 86.873C79.9531 88.6351 81.5444 89.8652 83.3652 89.8652H96.8789L85.2461 100.038C84.1008 101.04 83.6235 102.605 84.0137 104.075L88.3252 120.322L78.373 111.111C76.8397 109.692 74.4728 109.692 72.9395 111.111L62.9873 120.322L67.3037 104.058C67.689 102.606 67.2286 101.061 66.1113 100.057L54.7686 89.8652H67.9473C69.7681 89.8652 71.3594 88.635 71.8184 86.873L75.6562 72.1328L79.4941 86.873Z" stroke="black" stroke-width="4" shape-rendering="crispEdges"/>
</g>
<path d="M75.622 61.1521L105.112 85.604" stroke="black" stroke-width="4" stroke-linecap="round"/>
<path d="M105.273 126.473L105.273 86.018" stroke="black" stroke-width="4" stroke-linecap="round"/>
<g filter="url(#filter2_d_226_10)">
<path d="M118 127H453" stroke="black" stroke-width="4" stroke-linecap="round"/>
</g>
<defs>
<filter id="filter0_d_226_10" x="109.189" y="78.1895" width="349.51" height="57.4707" filterUnits="userSpaceOnUse" color-interpolation-filters="sRGB">
<feFlood flood-opacity="0" result="BackgroundImageFix"/>
<feColorMatrix in="SourceAlpha" type="matrix" values="0 0 0 0 0 0 0 0 0 0 0 0 0 0 0 0 0 0 127 0" result="hardAlpha"/>
<feOffset dy="7"/>
<feGaussianBlur stdDeviation="4"/>
<feComposite in2="hardAlpha" operator="out"/>
<feColorMatrix type="matrix" values="0 0 0 0 0 0 0 0 0 0 0 0 0 0 0 0 0 0 0.33 0"/>
<feBlend mode="normal" in2="BackgroundImageFix" result="effect1_dropShadow_226_10"/>
<feBlend mode="normal" in="SourceGraphic" in2="effect1_dropShadow_226_10" result="shape"/>
</filter>
<filter id="filter1_d_226_10" x="44.7656" y="69.1328" width="62.1172" height="68.1992" filterUnits="userSpaceOnUse" color-interpolation-filters="sRGB">
<feFlood flood-opacity="0" result="BackgroundImageFix"/>
<feColorMatrix in="SourceAlpha" type="matrix" values="0 0 0 0 0 0 0 0 0 0 0 0 0 0 0 0 0 0 127 0" result="hardAlpha"/>
<feOffset dy="7"/>
<feGaussianBlur stdDeviation="4"/>
<feComposite in2="hardAlpha" operator="out"/>
<feColorMatrix type="matrix" values="0 0 0 0 0 0 0 0 0 0 0 0 0 0 0 0 0 0 0.33 0"/>
<feBlend mode="normal" in2="BackgroundImageFix" result="effect1_dropShadow_226_10"/>
<feBlend mode="normal" in="SourceGraphic" in2="effect1_dropShadow_226_10" result="shape"/>
</filter>
<filter id="filter2_d_226_10" x="108" y="124" width="355" height="20" filterUnits="userSpaceOnUse" color-interpolation-filters="sRGB">
<feFlood flood-opacity="0" result="BackgroundImageFix"/>
<feColorMatrix in="SourceAlpha" type="matrix" values="0 0 0 0 0 0 0 0 0 0 0 0 0 0 0 0 0 0 127 0" result="hardAlpha"/>
<feOffset dy="7"/>
<feGaussianBlur stdDeviation="4"/>
<feComposite in2="hardAlpha" operator="out"/>
<feColorMatrix type="matrix" values="0 0 0 0 0 0 0 0 0 0 0 0 0 0 0 0 0 0 0.33 0"/>
<feBlend mode="normal" in2="BackgroundImageFix" result="effect1_dropShadow_226_10"/>
<feBlend mode="normal" in="SourceGraphic" in2="effect1_dropShadow_226_10" result="shape"/>
</filter>
</defs>
</svg>
