<svg width="227" height="78" viewBox="0 0 227 78" fill="none" xmlns="http://www.w3.org/2000/svg">
<path d="M0.223438 43V41.56L3.58344 40.52L14.9034 13H17.2634L28.3034 40.64L31.9434 41.52V43H19.7834V41.52L23.6234 40.64L14.7034 18L5.78344 43H0.223438ZM53.4928 43H46.4528V38.96C45.1995 41.8933 42.9995 43.36 39.8528 43.36C37.7461 43.36 36.1461 42.9067 35.0528 42C33.9595 41.0667 33.4128 39.7733 33.4128 38.12C33.4128 35.7733 34.4395 34.0933 36.4928 33.08C38.5728 32.04 41.8661 31.48 46.3728 31.4V29.68C46.3728 27.7867 45.9861 26.5067 45.2128 25.84C44.4395 25.1467 43.2928 24.8 41.7728 24.8C40.2528 24.8 38.9328 25.1467 37.8128 25.84L36.4928 29.8H35.0128V25.28C35.6795 24.72 36.5995 24.2533 37.7728 23.88C38.9461 23.48 40.2261 23.28 41.6128 23.28C44.4395 23.28 46.5595 23.8267 47.9728 24.92C49.4128 25.9867 50.1328 27.8933 50.1328 30.64V40.6L53.4928 41.52V43ZM40.8928 41.68C42.5995 41.68 43.9328 41.0267 44.8928 39.72C45.8795 38.3867 46.3728 36.08 46.3728 32.8C41.7861 32.8 38.9861 33.5067 37.9728 34.92C37.4928 35.5867 37.2528 36.5733 37.2528 37.88C37.2528 39.1867 37.5328 40.1467 38.0928 40.76C38.6795 41.3733 39.6128 41.68 40.8928 41.68ZM72.7297 14.24H73.9297C73.9297 16.2133 73.263 17.7467 71.9297 18.84C70.5964 19.9333 69.0097 20.48 67.1697 20.48C65.3297 20.48 63.7297 19.9333 62.3697 18.84C61.0364 17.7467 60.3697 16.2133 60.3697 14.24H61.6497C61.6497 15.3067 62.1964 16.1467 63.2897 16.76C64.4097 17.3733 65.703 17.68 67.1697 17.68C68.663 17.68 69.9564 17.3733 71.0497 16.76C72.1697 16.1467 72.7297 15.3067 72.7297 14.24ZM69.3297 43V41.52L72.2497 40.64V26.52L62.2897 43H55.5297V41.52L58.6097 40.68V25.96L55.5297 25.08V23.6H65.4497V25.08L62.3697 26V40.08L72.2497 23.6H79.2897V25.08L76.0097 25.96V40.64L79.2897 41.52V43H69.3297ZM92.5628 55.56V54.08L95.7228 53.2V38.68C94.5228 41.8533 92.2961 43.44 89.0428 43.44C86.4828 43.44 84.5495 42.4667 83.2428 40.52C81.9361 38.5733 81.2828 36.2133 81.2828 33.44C81.2828 29.5733 82.4295 26.6933 84.7228 24.8C85.9228 23.7867 87.3895 23.28 89.1228 23.28C92.4028 23.28 94.6028 24.8133 95.7228 27.88V15.36L92.5628 14.48V13H99.0828V27.88C100.283 24.8133 102.496 23.28 105.723 23.28C107.456 23.28 108.936 23.7867 110.163 24.8C112.429 26.6933 113.563 29.5733 113.563 33.44C113.563 36.2133 112.896 38.5733 111.563 40.52C110.256 42.4667 108.323 43.44 105.763 43.44C102.563 43.44 100.336 41.8533 99.0828 38.68V53.2L102.323 54.08V55.56H92.5628ZM95.6828 33.28C95.6828 30.6933 95.0961 28.6267 93.9228 27.08C92.7761 25.5067 91.4028 24.72 89.8028 24.72C88.2295 24.72 87.0561 25.5867 86.2828 27.32C85.5361 29.0267 85.1628 31.0933 85.1628 33.52C85.1628 35.9467 85.5228 37.9733 86.2428 39.6C86.9628 41.2 88.0961 42 89.6428 42C91.4828 42 92.9495 41.1867 94.0428 39.56C95.1361 37.9333 95.6828 35.84 95.6828 33.28ZM109.683 33.56C109.683 31.1333 109.296 29.0533 108.523 27.32C107.749 25.5867 106.563 24.72 104.963 24.72C103.363 24.72 101.989 25.5067 100.843 27.08C99.7228 28.6267 99.1628 30.6933 99.1628 33.28C99.1628 35.84 99.7095 37.9333 100.803 39.56C101.896 41.1867 103.283 42 104.963 42C106.643 42 107.843 41.2 108.563 39.6C109.309 37.9733 109.683 35.96 109.683 33.56ZM116.169 31.16H126.289V33.88H116.169V31.16ZM130.699 13H142.859V14.48L139.739 15.32L145.939 25.2L152.579 15.48L149.059 14.44V13H158.859V14.44L155.339 15.52L147.259 26.72L156.059 40.56L159.899 41.52V43H147.739V41.52L151.019 40.68L144.499 30.24L137.339 40.8L140.539 41.56V43H130.739V41.56L134.339 40.64L143.059 28.68L134.619 15.48L130.699 14.48V13ZM183.141 43H176.101V38.96C174.848 41.8933 172.648 43.36 169.501 43.36C167.395 43.36 165.795 42.9067 164.701 42C163.608 41.0667 163.061 39.7733 163.061 38.12C163.061 35.7733 164.088 34.0933 166.141 33.08C168.221 32.04 171.515 31.48 176.021 31.4V29.68C176.021 27.7867 175.635 26.5067 174.861 25.84C174.088 25.1467 172.941 24.8 171.421 24.8C169.901 24.8 168.581 25.1467 167.461 25.84L166.141 29.8H164.661V25.28C165.328 24.72 166.248 24.2533 167.421 23.88C168.595 23.48 169.875 23.28 171.261 23.28C174.088 23.28 176.208 23.8267 177.621 24.92C179.061 25.9867 179.781 27.8933 179.781 30.64V40.6L183.141 41.52V43ZM170.541 41.68C172.248 41.68 173.581 41.0267 174.541 39.72C175.528 38.3867 176.021 36.08 176.021 32.8C171.435 32.8 168.635 33.5067 167.621 34.92C167.141 35.5867 166.901 36.5733 166.901 37.88C166.901 39.1867 167.181 40.1467 167.741 40.76C168.328 41.3733 169.261 41.68 170.541 41.68ZM199.058 23.56H207.458V25.08L204.298 25.56L195.978 46.04C194.831 48.76 193.885 50.5333 193.138 51.36C192.391 52.1867 191.165 52.6 189.458 52.6H187.698V46.76H189.178L190.178 50.36C191.005 50.3067 191.605 50.08 191.978 49.68C192.351 49.3067 192.631 49.0133 192.818 48.8C193.005 48.5867 193.218 48.2 193.458 47.64C193.725 47.1067 193.911 46.6933 194.018 46.4C194.151 46.1067 194.365 45.5733 194.658 44.8C194.951 44.0267 195.178 43.4533 195.338 43.08L187.698 25.8L184.378 25.08V23.6H194.538V25.08L191.818 25.64L197.298 38.6L202.138 25.6L199.058 25.08V23.56ZM225.275 36.76V41.48C223.862 42.76 221.702 43.4 218.795 43.4C215.888 43.4 213.502 42.52 211.635 40.76C209.795 39 208.875 36.5467 208.875 33.4C208.875 30.2533 209.822 27.7733 211.715 25.96C213.635 24.12 216.075 23.2 219.035 23.2C220.262 23.2 221.448 23.36 222.595 23.68C223.742 23.9733 224.608 24.3867 225.195 24.92V29.88H223.715L222.395 25.52C221.648 24.96 220.408 24.68 218.675 24.68C216.942 24.68 215.555 25.4267 214.515 26.92C213.502 28.4133 212.995 30.5867 212.995 33.44C212.995 39.0667 215.048 41.88 219.155 41.88C220.515 41.88 221.595 41.6933 222.395 41.32L223.795 36.76H225.275Z" fill="#0D0000"/>
<path d="M42.6867 71V70.26L44.6467 69.8V57.24L39.2067 71H37.9867L32.5467 57.24V69.8L34.5467 70.26V71H29.5867V70.26L31.5067 69.8V57.26L29.8067 56.74V56H34.1067L39.1667 68.52L44.0867 56H48.8067V56.74L46.7267 57.22V69.8L48.7667 70.26V71H42.6867ZM58.3078 66.22C58.3078 64.78 58.0878 63.7133 57.6478 63.02C57.2078 62.3133 56.4878 61.96 55.4878 61.96C54.5011 61.96 53.7678 62.3 53.2878 62.98C52.8211 63.6467 52.5878 64.72 52.5878 66.2C52.5878 67.68 52.8211 68.7467 53.2878 69.4C53.7545 70.04 54.4678 70.36 55.4278 70.36C56.4011 70.36 57.1211 70.0333 57.5878 69.38C58.0678 68.7133 58.3078 67.66 58.3078 66.22ZM50.5678 66.22C50.5678 64.6467 51.0145 63.4067 51.9078 62.5C52.8011 61.58 53.9811 61.12 55.4478 61.12C56.9278 61.12 58.1078 61.5667 58.9878 62.46C59.8678 63.3533 60.3078 64.6 60.3078 66.2C60.3078 67.8 59.8678 69.0333 58.9878 69.9C58.1078 70.7533 56.9211 71.18 55.4278 71.18C53.9478 71.18 52.7678 70.7467 51.8878 69.88C51.0078 69.0133 50.5678 67.7933 50.5678 66.22ZM60.9872 70.28H62.6272L66.4472 61.22H67.5272L71.1472 70.28H72.7872V72.78H72.1472L71.4272 71H62.3072L61.5272 72.86H60.9872V70.28ZM69.0672 70.28L66.4872 62.84L63.9472 70.28H69.0672ZM80.6189 61.28H84.8189V62.04L83.2389 62.28L79.0789 72.52C78.5056 73.88 78.0322 74.7667 77.6589 75.18C77.2856 75.5933 76.6722 75.8 75.8189 75.8H74.9389V72.88H75.6789L76.1789 74.68C76.5922 74.6533 76.8922 74.54 77.0789 74.34C77.2656 74.1533 77.4056 74.0067 77.4989 73.9C77.5922 73.7933 77.6989 73.6 77.8189 73.32C77.9522 73.0533 78.0456 72.8467 78.0989 72.7C78.1656 72.5533 78.2722 72.2867 78.4189 71.9C78.5656 71.5133 78.6789 71.2267 78.7589 71.04L74.9389 62.4L73.2789 62.04V61.3H78.3589V62.04L76.9989 62.32L79.7389 68.8L82.1589 62.3L80.6189 62.04V61.28ZM85.1273 71V70.24L86.6273 69.9L90.2073 61.28H91.3873L94.9273 69.9L96.4873 70.24V70.98H91.4073V70.24L92.7873 69.9L90.3073 62.96L87.5873 71H85.1273ZM97.3098 61.38H102.39V62.12L100.67 62.6V65.82H103.79C104.59 65.82 105.21 66.08 105.65 66.6C106.09 67.1067 106.31 67.7133 106.31 68.42C106.31 69.1267 106.09 69.7333 105.65 70.24C105.21 70.7467 104.59 71 103.79 71H97.3098V70.26L98.7698 69.86V62.54L97.3098 62.12V61.38ZM102.63 66.54H100.67V70.28H102.63C103.203 70.28 103.643 70.1 103.95 69.74C104.27 69.3667 104.43 68.9267 104.43 68.42C104.43 67.9133 104.27 67.4733 103.95 67.1C103.63 66.7267 103.19 66.54 102.63 66.54ZM114.189 71V70.26L115.549 69.82V66.46H110.809V69.82L112.269 70.26V71H107.389V70.26L108.929 69.84V62.48L107.389 62.04V61.3H112.269V62.04L110.809 62.5V65.74H115.549V62.48L114.189 62.04V61.3H119.069V62.04L117.429 62.48V69.82L119.069 70.26V71H114.189ZM120.652 61.38H125.732V62.12L124.012 62.6V65.82H127.132C127.919 65.82 128.532 66.08 128.972 66.6C129.425 67.1067 129.652 67.7133 129.652 68.42C129.652 69.1267 129.432 69.7333 128.992 70.24C128.552 70.7467 127.932 71 127.132 71H120.652V70.26L122.112 69.86V62.54L120.652 62.12V61.38ZM125.972 66.54H124.012V70.28H125.972C126.545 70.28 126.985 70.1 127.292 69.74C127.612 69.3667 127.772 68.9267 127.772 68.42C127.772 67.9133 127.612 67.4733 127.292 67.1C126.985 66.7267 126.545 66.54 125.972 66.54ZM135.252 71H130.172V70.26L131.712 69.84V62.48L130.172 62.04V61.3H135.252V62.04L133.592 62.5V69.82L135.252 70.26V71ZM145.243 67.62V69.9C144.483 70.7667 143.256 71.2 141.563 71.2C139.883 71.2 138.636 70.76 137.823 69.88C137.009 68.9867 136.603 67.7533 136.603 66.18C136.603 64.6067 137.029 63.3733 137.883 62.48C138.749 61.5733 139.909 61.12 141.363 61.12C142.229 61.12 142.949 61.28 143.523 61.6C144.109 61.92 144.529 62.3467 144.783 62.88C145.183 63.76 145.383 64.6867 145.383 65.66H138.603C138.603 67.1667 138.776 68.3133 139.123 69.1C139.523 69.9933 140.309 70.44 141.483 70.44C141.896 70.44 142.289 70.3867 142.663 70.28C143.049 70.16 143.329 70.0467 143.503 69.94C143.676 69.8333 143.763 69.7667 143.763 69.74L144.503 67.62H145.243ZM141.323 61.9C140.189 61.9 139.416 62.42 139.002 63.46C138.802 63.9267 138.683 64.44 138.643 65H143.643C143.643 62.9333 142.869 61.9 141.323 61.9ZM151.768 70.28H153.408L157.228 61.22H158.308L161.928 70.28H163.568V72.78H162.928L162.208 71H153.088L152.308 72.86H151.768V70.28ZM159.848 70.28L157.268 62.84L154.728 70.28H159.848ZM171.609 66.22C171.609 64.78 171.389 63.7133 170.949 63.02C170.509 62.3133 169.789 61.96 168.789 61.96C167.802 61.96 167.069 62.3 166.589 62.98C166.122 63.6467 165.889 64.72 165.889 66.2C165.889 67.68 166.122 68.7467 166.589 69.4C167.055 70.04 167.769 70.36 168.729 70.36C169.702 70.36 170.422 70.0333 170.889 69.38C171.369 68.7133 171.609 67.66 171.609 66.22ZM163.869 66.22C163.869 64.6467 164.315 63.4067 165.209 62.5C166.102 61.58 167.282 61.12 168.749 61.12C170.229 61.12 171.409 61.5667 172.289 62.46C173.169 63.3533 173.609 64.6 173.609 66.2C173.609 67.8 173.169 69.0333 172.289 69.9C171.409 70.7533 170.222 71.18 168.729 71.18C167.249 71.18 166.069 70.7467 165.189 69.88C164.309 69.0133 163.869 67.7933 163.869 66.22ZM174.988 61.3H178.908L181.928 68.82L184.988 61.32H188.808V62.04L187.308 62.46V69.8L188.888 70.26V71H183.808V70.26L185.408 69.8V62.26L181.928 71H180.808L177.288 62.26V69.82L178.748 70.26V71H175.028V70.26L176.568 69.82V62.54L174.988 62.04V61.3ZM200.395 71H196.875V68.98C196.248 70.4467 195.148 71.18 193.575 71.18C192.522 71.18 191.722 70.9533 191.175 70.5C190.628 70.0333 190.355 69.3867 190.355 68.56C190.355 67.3867 190.868 66.5467 191.895 66.04C192.935 65.52 194.582 65.24 196.835 65.2V64.34C196.835 63.3933 196.642 62.7533 196.255 62.42C195.868 62.0733 195.295 61.9 194.535 61.9C193.775 61.9 193.115 62.0733 192.555 62.42L191.895 64.4H191.155V62.14C191.488 61.86 191.948 61.6267 192.535 61.44C193.122 61.24 193.762 61.14 194.455 61.14C195.868 61.14 196.928 61.4133 197.635 61.96C198.355 62.4933 198.715 63.4467 198.715 64.82V69.8L200.395 70.26V71ZM194.095 70.34C194.948 70.34 195.615 70.0133 196.095 69.36C196.588 68.6933 196.835 67.54 196.835 65.9C194.542 65.9 193.142 66.2533 192.635 66.96C192.395 67.2933 192.275 67.7867 192.275 68.44C192.275 69.0933 192.415 69.5733 192.695 69.88C192.988 70.1867 193.455 70.34 194.095 70.34Z" fill="#0D0000"/>
</svg>
